<?xml version="1.0" encoding="UTF-8"?>
<!-- Wireframe mockup: Landing Page (Index) | Design phase artifact for thesis report -->
<svg xmlns="http://www.w3.org/2000/svg" viewBox="0 0 1200 800" width="1200" height="800" font-family="Inter, sans-serif">
  <rect x="0" y="0" width="1200" height="800" fill="#ffffff"/>

  <!-- Top Header / Nav bar -->
  <rect x="20" y="20" width="1160" height="70" rx="6" fill="#f5f5f5" stroke="#333" stroke-width="1.5"/>
  <rect x="40" y="40" width="120" height="30" rx="4" fill="#e0e0e0" stroke="#333" stroke-width="1"/>
  <text x="100" y="60" font-size="14" fill="#222" text-anchor="middle">ParkSmart Logo</text>

  <rect x="700" y="40" width="80" height="30" rx="4" fill="none" stroke="#333" stroke-width="1"/>
  <text x="740" y="60" font-size="13" fill="#222" text-anchor="middle">Tinh nang</text>
  <rect x="790" y="40" width="80" height="30" rx="4" fill="none" stroke="#333" stroke-width="1"/>
  <text x="830" y="60" font-size="13" fill="#222" text-anchor="middle">Bang gia</text>
  <rect x="880" y="40" width="80" height="30" rx="4" fill="none" stroke="#333" stroke-width="1"/>
  <text x="920" y="60" font-size="13" fill="#222" text-anchor="middle">Lien he</text>
  <rect x="980" y="40" width="80" height="30" rx="4" fill="#e0e0e0" stroke="#333" stroke-width="1"/>
  <text x="1020" y="60" font-size="13" fill="#222" text-anchor="middle">Dang nhap</text>
  <rect x="1070" y="40" width="90" height="30" rx="4" fill="#e0e0e0" stroke="#333" stroke-width="1"/>
  <text x="1115" y="60" font-size="13" fill="#222" text-anchor="middle">Dang ky</text>

  <text x="1180" y="105" font-size="11" fill="#666" font-style="italic" text-anchor="end">Top navigation bar</text>

  <!-- Hero Section -->
  <rect x="20" y="120" width="1160" height="420" rx="6" fill="#f5f5f5" stroke="#333" stroke-width="1.5"/>

  <!-- Hero Headline -->
  <rect x="80" y="180" width="560" height="50" rx="4" fill="#e0e0e0" stroke="#333" stroke-width="1"/>
  <text x="90" y="212" font-size="18" fill="#222">Headline: Bai do xe thong minh ParkSmart</text>

  <rect x="80" y="240" width="560" height="30" rx="4" fill="none" stroke="#333" stroke-width="1"/>
  <text x="90" y="260" font-size="14" fill="#222">Subline: Dat cho - Thanh toan - AI nhan dien bien so</text>

  <rect x="80" y="290" width="560" height="30" rx="4" fill="none" stroke="#333" stroke-width="1"/>
  <text x="90" y="310" font-size="13" fill="#222">Mo ta ngan ve gia tri san pham (2-3 dong)</text>

  <!-- Hero CTAs -->
  <rect x="80" y="360" width="180" height="50" rx="6" fill="#e0e0e0" stroke="#333" stroke-width="1.5"/>
  <text x="170" y="390" font-size="14" fill="#222" text-anchor="middle">Bat dau ngay</text>

  <rect x="280" y="360" width="180" height="50" rx="6" fill="none" stroke="#333" stroke-width="1.5"/>
  <text x="370" y="390" font-size="14" fill="#222" text-anchor="middle">Xem demo</text>

  <text x="80" y="440" font-size="11" fill="#666" font-style="italic">Hero section: tieu de + CTA chinh</text>

  <!-- Hero Image Placeholder -->
  <rect x="720" y="180" width="400" height="280" rx="6" fill="#f5f5f5" stroke="#333" stroke-width="1.5"/>
  <line x1="720" y1="180" x2="1120" y2="460" stroke="#333" stroke-width="1"/>
  <line x1="1120" y1="180" x2="720" y2="460" stroke="#333" stroke-width="1"/>
  <text x="920" y="325" font-size="14" fill="#222" text-anchor="middle">Hero Image</text>
  <text x="920" y="345" font-size="11" fill="#666" text-anchor="middle">(screenshot ung dung / minh hoa)</text>

  <!-- Features Strip -->
  <rect x="20" y="560" width="1160" height="220" rx="6" fill="#ffffff" stroke="#333" stroke-width="1.5"/>
  <text x="40" y="590" font-size="14" fill="#222" font-weight="bold">Tinh nang noi bat</text>
  <text x="1180" y="590" font-size="11" fill="#666" font-style="italic" text-anchor="end">Feature cards (3 cot)</text>

  <rect x="40" y="610" width="360" height="150" rx="6" fill="#f5f5f5" stroke="#333" stroke-width="1"/>
  <rect x="60" y="630" width="60" height="60" rx="4" fill="#e0e0e0" stroke="#333" stroke-width="1"/>
  <text x="90" y="665" font-size="11" fill="#666" text-anchor="middle">img</text>
  <text x="60" y="715" font-size="14" fill="#222">Dat cho online</text>
  <text x="60" y="735" font-size="11" fill="#666">Mo ta tinh nang ngan gon</text>

  <rect x="420" y="610" width="360" height="150" rx="6" fill="#f5f5f5" stroke="#333" stroke-width="1"/>
  <rect x="440" y="630" width="60" height="60" rx="4" fill="#e0e0e0" stroke="#333" stroke-width="1"/>
  <text x="470" y="665" font-size="11" fill="#666" text-anchor="middle">img</text>
  <text x="440" y="715" font-size="14" fill="#222">AI nhan dien bien so</text>
  <text x="440" y="735" font-size="11" fill="#666">Mo ta tinh nang ngan gon</text>

  <rect x="800" y="610" width="360" height="150" rx="6" fill="#f5f5f5" stroke="#333" stroke-width="1"/>
  <rect x="820" y="630" width="60" height="60" rx="4" fill="#e0e0e0" stroke="#333" stroke-width="1"/>
  <text x="850" y="665" font-size="11" fill="#666" text-anchor="middle">img</text>
  <text x="820" y="715" font-size="14" fill="#222">Thanh toan tien mat / QR</text>
  <text x="820" y="735" font-size="11" fill="#666">Mo ta tinh nang ngan gon</text>
</svg>
