<?xml version="1.0" encoding="UTF-8"?>
<!-- Wireframe mockup: User Dashboard | Design phase artifact for thesis report -->
<svg xmlns="http://www.w3.org/2000/svg" viewBox="0 0 1200 800" width="1200" height="800" font-family="Inter, sans-serif">
  <rect x="0" y="0" width="1200" height="800" fill="#ffffff"/>

  <!-- Sidebar -->
  <rect x="20" y="20" width="220" height="760" rx="6" fill="#f5f5f5" stroke="#333" stroke-width="1.5"/>
  <rect x="40" y="40" width="180" height="40" rx="4" fill="#e0e0e0" stroke="#333" stroke-width="1"/>
  <text x="130" y="65" font-size="14" fill="#222" text-anchor="middle">ParkSmart Logo</text>

  <!-- User profile -->
  <rect x="40" y="95" width="180" height="60" rx="6" fill="#ffffff" stroke="#333" stroke-width="1"/>
  <rect x="50" y="105" width="40" height="40" rx="20" fill="#e0e0e0" stroke="#333" stroke-width="1"/>
  <text x="100" y="125" font-size="13" fill="#222">e2e_playwright</text>
  <text x="100" y="142" font-size="11" fill="#666">User</text>

  <!-- Menu items -->
  <rect x="40" y="170" width="180" height="36" rx="4" fill="#e0e0e0" stroke="#333" stroke-width="1"/>
  <text x="55" y="193" font-size="13" fill="#222">Dashboard</text>

  <rect x="40" y="212" width="180" height="36" rx="4" fill="none" stroke="#333" stroke-width="1"/>
  <text x="55" y="235" font-size="13" fill="#222">Dat cho</text>

  <rect x="40" y="254" width="180" height="36" rx="4" fill="none" stroke="#333" stroke-width="1"/>
  <text x="55" y="277" font-size="13" fill="#222">Lich su</text>

  <rect x="40" y="296" width="180" height="36" rx="4" fill="none" stroke="#333" stroke-width="1"/>
  <text x="55" y="319" font-size="13" fill="#222">Ban do</text>

  <rect x="40" y="338" width="180" height="36" rx="4" fill="none" stroke="#333" stroke-width="1"/>
  <text x="55" y="361" font-size="13" fill="#222">Camera</text>

  <rect x="40" y="380" width="180" height="36" rx="4" fill="none" stroke="#333" stroke-width="1"/>
  <text x="55" y="403" font-size="13" fill="#222">Nhan dien tien</text>

  <rect x="40" y="422" width="180" height="36" rx="4" fill="none" stroke="#333" stroke-width="1"/>
  <text x="55" y="445" font-size="13" fill="#222">Ho tro</text>

  <rect x="40" y="464" width="180" height="36" rx="4" fill="none" stroke="#333" stroke-width="1"/>
  <text x="55" y="487" font-size="13" fill="#222">Cai dat</text>

  <text x="40" y="525" font-size="11" fill="#666" font-style="italic">Sidebar nav (7 muc)</text>

  <!-- Logout -->
  <rect x="40" y="730" width="180" height="36" rx="4" fill="none" stroke="#333" stroke-width="1"/>
  <text x="55" y="753" font-size="13" fill="#222">Dang xuat</text>

  <!-- Main Content -->
  <!-- Page Title -->
  <text x="270" y="50" font-size="18" fill="#222" font-weight="bold">Xin chao, [User]</text>
  <text x="270" y="72" font-size="13" fill="#666">Quan ly va dat cho cua ban</text>
  <text x="1180" y="50" font-size="11" fill="#666" font-style="italic" text-anchor="end">Page header</text>

  <!-- Active booking card -->
  <rect x="270" y="95" width="910" height="120" rx="6" fill="#f5f5f5" stroke="#333" stroke-width="1.5"/>
  <text x="290" y="120" font-size="14" fill="#222" font-weight="bold">Bien so: 51A-999.88</text>
  <rect x="450" y="105" width="80" height="22" rx="4" fill="#e0e0e0" stroke="#333" stroke-width="1"/>
  <text x="490" y="120" font-size="11" fill="#222" text-anchor="middle">Dang dau</text>
  <text x="290" y="145" font-size="12" fill="#666">Zone B - B2 - Slot B-04 | -5h -59m | 15.000d</text>

  <rect x="290" y="160" width="420" height="40" rx="4" fill="none" stroke="#333" stroke-width="1"/>
  <text x="500" y="185" font-size="13" fill="#222" text-anchor="middle">Xem camera</text>

  <rect x="730" y="160" width="420" height="40" rx="4" fill="none" stroke="#333" stroke-width="1"/>
  <text x="940" y="185" font-size="13" fill="#222" text-anchor="middle">Bao su co</text>

  <text x="1150" y="232" font-size="11" fill="#666" font-style="italic" text-anchor="end">Active booking card</text>

  <!-- KPI Cards Row -->
  <rect x="270" y="245" width="220" height="90" rx="6" fill="#ffffff" stroke="#333" stroke-width="1"/>
  <text x="285" y="270" font-size="11" fill="#666">Lap te</text>
  <text x="285" y="305" font-size="18" fill="#222" font-weight="bold">3</text>

  <rect x="500" y="245" width="220" height="90" rx="6" fill="#ffffff" stroke="#333" stroke-width="1"/>
  <text x="515" y="270" font-size="11" fill="#666">Chi tieu</text>
  <text x="515" y="305" font-size="18" fill="#222" font-weight="bold">0.1M</text>

  <rect x="730" y="245" width="220" height="90" rx="6" fill="#ffffff" stroke="#333" stroke-width="1"/>
  <text x="745" y="270" font-size="11" fill="#666">Xe da luu</text>
  <text x="745" y="305" font-size="18" fill="#222" font-weight="bold">2</text>

  <rect x="960" y="245" width="220" height="90" rx="6" fill="#ffffff" stroke="#333" stroke-width="1"/>
  <text x="975" y="270" font-size="11" fill="#666">No-show</text>
  <text x="975" y="305" font-size="18" fill="#222" font-weight="bold">0</text>

  <text x="1180" y="352" font-size="11" fill="#666" font-style="italic" text-anchor="end">KPI tiles (4 metric)</text>

  <!-- Quick Actions -->
  <rect x="270" y="365" width="445" height="80" rx="6" fill="none" stroke="#333" stroke-width="1.5"/>
  <text x="492" y="412" font-size="14" fill="#222" text-anchor="middle">Dat cho moi</text>

  <rect x="735" y="365" width="445" height="80" rx="6" fill="#e0e0e0" stroke="#333" stroke-width="1.5"/>
  <text x="957" y="412" font-size="14" fill="#222" text-anchor="middle">Xem ban do</text>

  <text x="1180" y="462" font-size="11" fill="#666" font-style="italic" text-anchor="end">Quick action buttons</text>

  <!-- Recent Activity -->
  <rect x="270" y="475" width="910" height="305" rx="6" fill="#f5f5f5" stroke="#333" stroke-width="1.5"/>
  <text x="290" y="500" font-size="14" fill="#222" font-weight="bold">Hoat dong gan day</text>

  <rect x="290" y="520" width="870" height="50" rx="4" fill="#ffffff" stroke="#333" stroke-width="1"/>
  <text x="725" y="550" font-size="12" fill="#666" text-anchor="middle">[empty state placeholder]</text>

  <text x="1160" y="770" font-size="11" fill="#666" font-style="italic" text-anchor="end">Activity feed</text>
</svg>
