<?xml version="1.0" encoding="UTF-8"?>
<!-- Wireframe mockup: Realtime Parking Map | Design phase artifact for thesis report -->
<svg xmlns="http://www.w3.org/2000/svg" viewBox="0 0 1200 800" width="1200" height="800" font-family="Inter, sans-serif">
  <rect x="0" y="0" width="1200" height="800" fill="#ffffff"/>

  <!-- Sidebar -->
  <rect x="20" y="20" width="200" height="760" rx="6" fill="#f5f5f5" stroke="#333" stroke-width="1.5"/>
  <rect x="35" y="35" width="170" height="36" rx="4" fill="#e0e0e0" stroke="#333" stroke-width="1"/>
  <text x="120" y="58" font-size="13" fill="#222" text-anchor="middle">ParkSmart Logo</text>

  <rect x="35" y="85" width="170" height="50" rx="6" fill="#ffffff" stroke="#333" stroke-width="1"/>
  <text x="120" y="115" font-size="12" fill="#222" text-anchor="middle">e2e_playwright</text>

  <rect x="35" y="150" width="170" height="32" rx="4" fill="none" stroke="#333" stroke-width="1"/>
  <text x="50" y="171" font-size="12" fill="#222">Dashboard</text>
  <rect x="35" y="186" width="170" height="32" rx="4" fill="none" stroke="#333" stroke-width="1"/>
  <text x="50" y="207" font-size="12" fill="#222">Dat cho</text>
  <rect x="35" y="222" width="170" height="32" rx="4" fill="none" stroke="#333" stroke-width="1"/>
  <text x="50" y="243" font-size="12" fill="#222">Lich su</text>
  <rect x="35" y="258" width="170" height="32" rx="4" fill="#e0e0e0" stroke="#333" stroke-width="1"/>
  <text x="50" y="279" font-size="12" fill="#222">Ban do</text>
  <rect x="35" y="294" width="170" height="32" rx="4" fill="none" stroke="#333" stroke-width="1"/>
  <text x="50" y="315" font-size="12" fill="#222">Camera</text>
  <rect x="35" y="330" width="170" height="32" rx="4" fill="none" stroke="#333" stroke-width="1"/>
  <text x="50" y="351" font-size="12" fill="#222">Nhan dien tien</text>
  <rect x="35" y="366" width="170" height="32" rx="4" fill="none" stroke="#333" stroke-width="1"/>
  <text x="50" y="387" font-size="12" fill="#222">Ho tro</text>
  <rect x="35" y="402" width="170" height="32" rx="4" fill="none" stroke="#333" stroke-width="1"/>
  <text x="50" y="423" font-size="12" fill="#222">Cai dat</text>
  <text x="35" y="455" font-size="11" fill="#666" font-style="italic">Sidebar nav</text>

  <!-- Page Header -->
  <text x="250" y="50" font-size="18" fill="#222" font-weight="bold">Ban do bai xe</text>
  <text x="250" y="72" font-size="13" fill="#666">Xem vi tri va huong dan den cho dau xe</text>

  <!-- Filter tabs -->
  <rect x="250" y="90" width="120" height="34" rx="4" fill="#ffffff" stroke="#333" stroke-width="1"/>
  <text x="310" y="112" font-size="12" fill="#222" text-anchor="middle">Tang -2</text>

  <rect x="380" y="90" width="120" height="34" rx="4" fill="#e0e0e0" stroke="#333" stroke-width="1"/>
  <text x="440" y="112" font-size="12" fill="#222" text-anchor="middle">Chi duong</text>

  <text x="510" y="112" font-size="12" fill="#222">Tong ~85m</text>
  <text x="650" y="112" font-size="11" fill="#666" font-style="italic">Floor + path filter tabs</text>

  <!-- Map Visualization Area -->
  <rect x="250" y="135" width="640" height="555" rx="6" fill="#f5f5f5" stroke="#333" stroke-width="1.5"/>
  <text x="270" y="160" font-size="14" fill="#222" font-weight="bold">Tang -2</text>
  <text x="850" y="160" font-size="11" fill="#666" text-anchor="end">Zone B - B2 - B-04</text>

  <!-- Slot grid (left zone) -->
  <rect x="270" y="180" width="280" height="380" rx="4" fill="#ffffff" stroke="#333" stroke-width="1"/>
  <text x="280" y="200" font-size="11" fill="#666">Tang -2</text>

  <!-- 4x6 grid of slots -->
  <g stroke="#333" stroke-width="1">
    <rect x="280" y="215" width="60" height="22" rx="2" fill="#e0e0e0"/>
    <rect x="345" y="215" width="60" height="22" rx="2" fill="#e0e0e0"/>
    <rect x="410" y="215" width="60" height="22" rx="2" fill="#e0e0e0"/>
    <rect x="475" y="215" width="60" height="22" rx="2" fill="#e0e0e0"/>

    <rect x="280" y="245" width="60" height="22" rx="2" fill="#e0e0e0"/>
    <rect x="345" y="245" width="60" height="22" rx="2" fill="#f5f5f5"/>
    <rect x="410" y="245" width="60" height="22" rx="2" fill="#e0e0e0"/>
    <rect x="475" y="245" width="60" height="22" rx="2" fill="#e0e0e0"/>

    <rect x="280" y="275" width="60" height="22" rx="2" fill="#e0e0e0"/>
    <rect x="345" y="275" width="60" height="22" rx="2" fill="#e0e0e0"/>
    <rect x="410" y="275" width="60" height="22" rx="2" fill="#f5f5f5"/>
    <rect x="475" y="275" width="60" height="22" rx="2" fill="#e0e0e0"/>

    <rect x="280" y="305" width="60" height="22" rx="2" fill="#e0e0e0"/>
    <rect x="345" y="305" width="60" height="22" rx="2" fill="#e0e0e0"/>
    <rect x="410" y="305" width="60" height="22" rx="2" fill="#e0e0e0"/>
    <rect x="475" y="305" width="60" height="22" rx="2" fill="#f5f5f5"/>

    <rect x="280" y="335" width="60" height="22" rx="2" fill="#e0e0e0"/>
    <rect x="345" y="335" width="60" height="22" rx="2" fill="#e0e0e0"/>
    <rect x="410" y="335" width="60" height="22" rx="2" fill="#e0e0e0"/>
    <rect x="475" y="335" width="60" height="22" rx="2" fill="#e0e0e0"/>
  </g>
  <text x="410" y="385" font-size="11" fill="#666" text-anchor="middle" font-style="italic">[Slot grid - mau hien thi trang thai]</text>

  <!-- Slot grid (right zone) -->
  <rect x="570" y="180" width="280" height="380" rx="4" fill="#ffffff" stroke="#333" stroke-width="1"/>
  <text x="580" y="200" font-size="11" fill="#666">Zone B - B2</text>
  <g stroke="#333" stroke-width="1">
    <rect x="580" y="215" width="60" height="22" rx="2" fill="#e0e0e0"/>
    <rect x="645" y="215" width="60" height="22" rx="2" fill="#e0e0e0"/>
    <rect x="710" y="215" width="60" height="22" rx="2" fill="#e0e0e0"/>
    <rect x="775" y="215" width="60" height="22" rx="2" fill="#e0e0e0"/>

    <rect x="580" y="245" width="60" height="22" rx="2" fill="#e0e0e0"/>
    <rect x="645" y="245" width="60" height="22" rx="2" fill="#e0e0e0"/>
    <rect x="710" y="245" width="60" height="22" rx="2" fill="#e0e0e0"/>
    <rect x="775" y="245" width="60" height="22" rx="2" fill="#e0e0e0"/>

    <rect x="580" y="275" width="60" height="22" rx="2" fill="#e0e0e0"/>
    <rect x="645" y="275" width="60" height="22" rx="2" fill="#e0e0e0"/>
    <rect x="710" y="275" width="60" height="22" rx="2" fill="#e0e0e0"/>
    <rect x="775" y="275" width="60" height="22" rx="2" fill="#e0e0e0"/>

    <rect x="580" y="305" width="60" height="22" rx="2" fill="#e0e0e0"/>
    <rect x="645" y="305" width="60" height="22" rx="2" fill="#e0e0e0"/>
    <rect x="710" y="305" width="60" height="22" rx="2" fill="#e0e0e0"/>
    <rect x="775" y="305" width="60" height="22" rx="2" fill="#e0e0e0"/>
  </g>

  <!-- Legend -->
  <rect x="270" y="600" width="14" height="14" fill="#ffffff" stroke="#333" stroke-width="1"/>
  <text x="290" y="612" font-size="11" fill="#222">Trong</text>
  <rect x="340" y="600" width="14" height="14" fill="#e0e0e0" stroke="#333" stroke-width="1"/>
  <text x="360" y="612" font-size="11" fill="#222">Da dat</text>
  <rect x="420" y="600" width="14" height="14" fill="#f5f5f5" stroke="#333" stroke-width="1"/>
  <text x="440" y="612" font-size="11" fill="#222">Cua ban</text>

  <text x="270" y="680" font-size="11" fill="#666" font-style="italic">Slot grid + path overlay (Dijkstra)</text>

  <!-- Right Panel: Current booking + directions -->
  <rect x="910" y="135" width="270" height="180" rx="6" fill="#ffffff" stroke="#333" stroke-width="1.5"/>
  <text x="930" y="160" font-size="14" fill="#222" font-weight="bold">Booking hien tai</text>
  <text x="930" y="195" font-size="13" fill="#222">51A-999.88</text>
  <text x="930" y="220" font-size="12" fill="#666">Zone B - B2 - B-04</text>
  <text x="930" y="240" font-size="12" fill="#666">Tang -2</text>
  <text x="1160" y="305" font-size="11" fill="#666" font-style="italic" text-anchor="end">Current booking card</text>

  <rect x="910" y="330" width="270" height="320" rx="6" fill="#ffffff" stroke="#333" stroke-width="1.5"/>
  <text x="930" y="355" font-size="14" fill="#222" font-weight="bold">Huong dan duong di</text>
  <text x="1160" y="355" font-size="11" fill="#666" text-anchor="end">~2 ph</text>

  <!-- step list -->
  <rect x="930" y="370" width="230" height="40" rx="4" fill="#f5f5f5" stroke="#333" stroke-width="1"/>
  <text x="945" y="395" font-size="11" fill="#222">1. Tu cong chinh - 10m</text>

  <rect x="930" y="415" width="230" height="40" rx="4" fill="#f5f5f5" stroke="#333" stroke-width="1"/>
  <text x="945" y="440" font-size="11" fill="#222">2. Di thang - 34m</text>

  <rect x="930" y="460" width="230" height="40" rx="4" fill="#f5f5f5" stroke="#333" stroke-width="1"/>
  <text x="945" y="485" font-size="11" fill="#222">3. Re trai Nga re Zone B - 27m</text>

  <rect x="930" y="505" width="230" height="40" rx="4" fill="#f5f5f5" stroke="#333" stroke-width="1"/>
  <text x="945" y="530" font-size="11" fill="#222">4. Vao khu vuc Zone B-B2 - 6m</text>

  <rect x="930" y="550" width="230" height="40" rx="4" fill="#f5f5f5" stroke="#333" stroke-width="1"/>
  <text x="945" y="575" font-size="11" fill="#222">5. Re trai vao Hang 1 - 8m</text>

  <rect x="930" y="595" width="230" height="40" rx="4" fill="#f5f5f5" stroke="#333" stroke-width="1"/>
  <text x="945" y="620" font-size="11" fill="#222">6. Den vi tri B-04</text>

  <rect x="910" y="660" width="270" height="44" rx="6" fill="#e0e0e0" stroke="#333" stroke-width="1.5"/>
  <text x="1045" y="687" font-size="13" fill="#222" text-anchor="middle">Bat dau dan duong</text>

  <text x="1180" y="725" font-size="11" fill="#666" font-style="italic" text-anchor="end">Step-by-step direction list</text>
</svg>
