<?xml version="1.0" encoding="UTF-8"?>
<!-- Wireframe mockup: Payment | Design phase artifact for thesis report -->
<svg xmlns="http://www.w3.org/2000/svg" viewBox="0 0 1200 800" width="1200" height="800" font-family="Inter, sans-serif">
  <rect x="0" y="0" width="1200" height="800" fill="#ffffff"/>

  <!-- Sidebar -->
  <rect x="20" y="20" width="200" height="760" rx="6" fill="#f5f5f5" stroke="#333" stroke-width="1.5"/>
  <rect x="35" y="35" width="170" height="36" rx="4" fill="#e0e0e0" stroke="#333" stroke-width="1"/>
  <text x="120" y="58" font-size="13" fill="#222" text-anchor="middle">ParkSmart Logo</text>

  <rect x="35" y="85" width="170" height="50" rx="6" fill="#ffffff" stroke="#333" stroke-width="1"/>
  <text x="120" y="115" font-size="12" fill="#222" text-anchor="middle">e2e_playwright</text>

  <rect x="35" y="150" width="170" height="32" rx="4" fill="none" stroke="#333" stroke-width="1"/>
  <text x="50" y="171" font-size="12" fill="#222">Dashboard</text>
  <rect x="35" y="186" width="170" height="32" rx="4" fill="none" stroke="#333" stroke-width="1"/>
  <text x="50" y="207" font-size="12" fill="#222">Dat cho</text>
  <rect x="35" y="222" width="170" height="32" rx="4" fill="#e0e0e0" stroke="#333" stroke-width="1"/>
  <text x="50" y="243" font-size="12" fill="#222">Lich su / Thanh toan</text>
  <rect x="35" y="258" width="170" height="32" rx="4" fill="none" stroke="#333" stroke-width="1"/>
  <text x="50" y="279" font-size="12" fill="#222">Ban do</text>
  <rect x="35" y="294" width="170" height="32" rx="4" fill="none" stroke="#333" stroke-width="1"/>
  <text x="50" y="315" font-size="12" fill="#222">Camera</text>
  <rect x="35" y="330" width="170" height="32" rx="4" fill="none" stroke="#333" stroke-width="1"/>
  <text x="50" y="351" font-size="12" fill="#222">Nhan dien tien</text>
  <rect x="35" y="366" width="170" height="32" rx="4" fill="none" stroke="#333" stroke-width="1"/>
  <text x="50" y="387" font-size="12" fill="#222">Ho tro</text>
  <rect x="35" y="402" width="170" height="32" rx="4" fill="none" stroke="#333" stroke-width="1"/>
  <text x="50" y="423" font-size="12" fill="#222">Cai dat</text>
  <text x="35" y="455" font-size="11" fill="#666" font-style="italic">Sidebar nav</text>

  <!-- Page Header -->
  <text x="250" y="50" font-size="18" fill="#222" font-weight="bold">Thanh toan booking</text>
  <text x="250" y="72" font-size="13" fill="#666">Chon phuong thuc thanh toan phu hop</text>

  <!-- Amount Card -->
  <rect x="250" y="90" width="600" height="140" rx="6" fill="#f5f5f5" stroke="#333" stroke-width="1.5"/>
  <text x="270" y="115" font-size="13" fill="#666">Tong so tien can thanh toan</text>
  <text x="270" y="170" font-size="32" fill="#222" font-weight="bold">50.000 d</text>

  <line x1="270" y1="185" x2="830" y2="185" stroke="#ccc" stroke-width="1"/>
  <text x="270" y="207" font-size="11" fill="#666">Bien so: 51A-999.88 | Zone B - B2 - B-07 | 23/4/2026</text>

  <text x="850" y="248" font-size="11" fill="#666" font-style="italic" text-anchor="end">Total amount card</text>

  <!-- Payment Method Selector -->
  <rect x="250" y="260" width="600" height="60" rx="6" fill="#ffffff" stroke="#333" stroke-width="1.5"/>
  <rect x="262" y="270" width="190" height="40" rx="4" fill="#e0e0e0" stroke="#333" stroke-width="1"/>
  <text x="357" y="295" font-size="12" fill="#222" text-anchor="middle">QR Code</text>

  <rect x="458" y="270" width="190" height="40" rx="4" fill="none" stroke="#333" stroke-width="1"/>
  <text x="553" y="295" font-size="12" fill="#222" text-anchor="middle">Tien mat (AI)</text>

  <rect x="654" y="270" width="190" height="40" rx="4" fill="none" stroke="#333" stroke-width="1"/>
  <text x="749" y="295" font-size="12" fill="#222" text-anchor="middle">The ngan hang</text>

  <text x="850" y="338" font-size="11" fill="#666" font-style="italic" text-anchor="end">Method selector tabs</text>

  <!-- QR Section (active) -->
  <rect x="250" y="350" width="600" height="380" rx="6" fill="#f5f5f5" stroke="#333" stroke-width="1.5"/>
  <text x="270" y="378" font-size="14" fill="#222" font-weight="bold">Quet QR de thanh toan</text>
  <text x="270" y="398" font-size="11" fill="#666">Mo app ngan hang va quet ma QR</text>

  <!-- QR placeholder -->
  <rect x="370" y="415" width="240" height="240" rx="4" fill="#ffffff" stroke="#333" stroke-width="1.5"/>
  <line x1="370" y1="415" x2="610" y2="655" stroke="#333" stroke-width="1"/>
  <line x1="610" y1="415" x2="370" y2="655" stroke="#333" stroke-width="1"/>
  <text x="490" y="540" font-size="13" fill="#222" text-anchor="middle">QR Code</text>
  <text x="490" y="558" font-size="11" fill="#666" text-anchor="middle">[image placeholder]</text>

  <text x="490" y="685" font-size="11" fill="#666" text-anchor="middle">VietQR | NAPAS 247</text>
  <text x="490" y="705" font-size="11" fill="#222" text-anchor="middle" font-weight="bold">Ma giao dich: PS-23042026-001</text>

  <text x="850" y="748" font-size="11" fill="#666" font-style="italic" text-anchor="end">QR / Cash options panel</text>

  <!-- Right Panel: Order summary -->
  <rect x="870" y="90" width="310" height="640" rx="6" fill="#ffffff" stroke="#333" stroke-width="1.5"/>
  <text x="890" y="115" font-size="14" fill="#222" font-weight="bold">Thong tin booking</text>
  <line x1="890" y1="130" x2="1160" y2="130" stroke="#ccc" stroke-width="1"/>

  <text x="890" y="155" font-size="12" fill="#666">Bien so</text>
  <text x="1160" y="155" font-size="12" fill="#222" text-anchor="end">51A-999.88</text>

  <text x="890" y="180" font-size="12" fill="#666">Bai do</text>
  <text x="1160" y="180" font-size="12" fill="#222" text-anchor="end">ParkSmart Tower</text>

  <text x="890" y="205" font-size="12" fill="#666">Vi tri</text>
  <text x="1160" y="205" font-size="12" fill="#222" text-anchor="end">Zone B - B2 - B-07</text>

  <text x="890" y="230" font-size="12" fill="#666">Bat dau</text>
  <text x="1160" y="230" font-size="12" fill="#222" text-anchor="end">23/4/2026 08:00</text>

  <text x="890" y="255" font-size="12" fill="#666">Ket thuc</text>
  <text x="1160" y="255" font-size="12" fill="#222" text-anchor="end">23/4/2026 17:00</text>

  <text x="890" y="280" font-size="12" fill="#666">Thoi luong</text>
  <text x="1160" y="280" font-size="12" fill="#222" text-anchor="end">9 gio</text>

  <line x1="890" y1="300" x2="1160" y2="300" stroke="#ccc" stroke-width="1"/>

  <text x="890" y="325" font-size="12" fill="#666">Phi do xe</text>
  <text x="1160" y="325" font-size="12" fill="#222" text-anchor="end">45.000 d</text>

  <text x="890" y="350" font-size="12" fill="#666">Phi dich vu</text>
  <text x="1160" y="350" font-size="12" fill="#222" text-anchor="end">5.000 d</text>

  <line x1="890" y1="370" x2="1160" y2="370" stroke="#333" stroke-width="1"/>

  <text x="890" y="395" font-size="14" fill="#222" font-weight="bold">Tong cong</text>
  <text x="1160" y="395" font-size="14" fill="#222" font-weight="bold" text-anchor="end">50.000 d</text>

  <!-- Action buttons -->
  <rect x="890" y="640" width="270" height="40" rx="6" fill="#e0e0e0" stroke="#333" stroke-width="1.5"/>
  <text x="1025" y="665" font-size="13" fill="#222" text-anchor="middle">Xac nhan thanh toan</text>

  <rect x="890" y="685" width="270" height="36" rx="6" fill="none" stroke="#333" stroke-width="1.5"/>
  <text x="1025" y="708" font-size="12" fill="#222" text-anchor="middle">Huy giao dich</text>

  <text x="1160" y="745" font-size="11" fill="#666" font-style="italic" text-anchor="end">Booking summary</text>
</svg>
