<?xml version="1.0" encoding="UTF-8"?>
<!-- Wireframe mockup: Admin Dashboard | Design phase artifact for thesis report -->
<svg xmlns="http://www.w3.org/2000/svg" viewBox="0 0 1200 800" width="1200" height="800" font-family="Inter, sans-serif">
  <rect x="0" y="0" width="1200" height="800" fill="#ffffff"/>

  <!-- Sidebar -->
  <rect x="20" y="20" width="220" height="760" rx="6" fill="#f5f5f5" stroke="#333" stroke-width="1.5"/>
  <rect x="40" y="40" width="180" height="40" rx="4" fill="#e0e0e0" stroke="#333" stroke-width="1"/>
  <text x="130" y="65" font-size="14" fill="#222" text-anchor="middle">ParkSmart Logo</text>

  <rect x="40" y="95" width="180" height="60" rx="6" fill="#ffffff" stroke="#333" stroke-width="1"/>
  <rect x="50" y="105" width="40" height="40" rx="20" fill="#e0e0e0" stroke="#333" stroke-width="1"/>
  <text x="100" y="125" font-size="13" fill="#222">admin</text>
  <text x="100" y="142" font-size="11" fill="#666">Admin</text>

  <text x="40" y="180" font-size="10" fill="#666">QUAN TRI</text>
  <rect x="40" y="190" width="180" height="34" rx="4" fill="#e0e0e0" stroke="#333" stroke-width="1"/>
  <text x="55" y="212" font-size="13" fill="#222">Dashboard</text>

  <rect x="40" y="230" width="180" height="34" rx="4" fill="none" stroke="#333" stroke-width="1"/>
  <text x="55" y="252" font-size="13" fill="#222">Doanh thu</text>

  <rect x="40" y="270" width="180" height="34" rx="4" fill="none" stroke="#333" stroke-width="1"/>
  <text x="55" y="292" font-size="13" fill="#222">Nguoi dung</text>

  <rect x="40" y="310" width="180" height="34" rx="4" fill="none" stroke="#333" stroke-width="1"/>
  <text x="55" y="332" font-size="13" fill="#222">Quan ly Zone</text>

  <rect x="40" y="350" width="180" height="34" rx="4" fill="none" stroke="#333" stroke-width="1"/>
  <text x="55" y="372" font-size="13" fill="#222">Quan ly Slot</text>

  <rect x="40" y="390" width="180" height="34" rx="4" fill="none" stroke="#333" stroke-width="1"/>
  <text x="55" y="412" font-size="13" fill="#222">Camera</text>

  <rect x="40" y="430" width="180" height="34" rx="4" fill="none" stroke="#333" stroke-width="1"/>
  <text x="55" y="452" font-size="13" fill="#222">Vi pham</text>

  <rect x="40" y="470" width="180" height="34" rx="4" fill="none" stroke="#333" stroke-width="1"/>
  <text x="55" y="492" font-size="13" fill="#222">ESP32 IoT</text>

  <rect x="40" y="510" width="180" height="34" rx="4" fill="none" stroke="#333" stroke-width="1"/>
  <text x="55" y="532" font-size="13" fill="#222">Cau hinh</text>

  <text x="40" y="570" font-size="10" fill="#666">TAI KHOAN</text>
  <rect x="40" y="580" width="180" height="34" rx="4" fill="none" stroke="#333" stroke-width="1"/>
  <text x="55" y="602" font-size="13" fill="#222">Cai dat</text>

  <text x="40" y="640" font-size="11" fill="#666" font-style="italic">Admin sidebar (10 muc)</text>

  <!-- Top Bar -->
  <text x="270" y="50" font-size="18" fill="#222" font-weight="bold">Dashboard Admin</text>
  <text x="270" y="72" font-size="13" fill="#666">Quan ly va theo doi toan bo he thong bai giu xe</text>
  <rect x="1080" y="35" width="100" height="26" rx="13" fill="#e0e0e0" stroke="#333" stroke-width="1"/>
  <text x="1130" y="53" font-size="11" fill="#222" text-anchor="middle">He thong OK</text>

  <!-- KPI Cards -->
  <rect x="270" y="95" width="220" height="100" rx="6" fill="#f5f5f5" stroke="#333" stroke-width="1.5"/>
  <text x="285" y="120" font-size="11" fill="#666">Tong nguoi dung</text>
  <text x="285" y="160" font-size="22" fill="#222" font-weight="bold">7</text>

  <rect x="500" y="95" width="220" height="100" rx="6" fill="#f5f5f5" stroke="#333" stroke-width="1.5"/>
  <text x="515" y="120" font-size="11" fill="#666">Xe dang dau</text>
  <text x="515" y="160" font-size="22" fill="#222" font-weight="bold">0</text>
  <text x="515" y="180" font-size="10" fill="#666">+8%</text>

  <rect x="730" y="95" width="220" height="100" rx="6" fill="#f5f5f5" stroke="#333" stroke-width="1.5"/>
  <text x="745" y="120" font-size="11" fill="#666">Doanh thu thang</text>
  <text x="745" y="160" font-size="22" fill="#222" font-weight="bold">0 VND</text>
  <text x="745" y="180" font-size="10" fill="#666">+15%</text>

  <rect x="960" y="95" width="220" height="100" rx="6" fill="#f5f5f5" stroke="#333" stroke-width="1.5"/>
  <text x="975" y="120" font-size="11" fill="#666">Tong booking</text>
  <text x="975" y="160" font-size="22" fill="#222" font-weight="bold">0</text>

  <text x="1180" y="212" font-size="11" fill="#666" font-style="italic" text-anchor="end">KPI cards (4 metric)</text>

  <!-- Capacity bar -->
  <rect x="270" y="220" width="910" height="60" rx="6" fill="#ffffff" stroke="#333" stroke-width="1"/>
  <text x="285" y="245" font-size="13" fill="#222" font-weight="bold">Ty le lap day tong the</text>
  <text x="1165" y="245" font-size="14" fill="#222" font-weight="bold" text-anchor="end">0.0%</text>
  <rect x="285" y="255" width="880" height="14" rx="7" fill="#f5f5f5" stroke="#333" stroke-width="1"/>
  <text x="285" y="280" font-size="9" fill="#666">0%</text>
  <text x="725" y="280" font-size="9" fill="#666" text-anchor="middle">50%</text>
  <text x="1165" y="280" font-size="9" fill="#666" text-anchor="end">100%</text>

  <!-- Chart area -->
  <rect x="270" y="290" width="910" height="50" rx="6" fill="#ffffff" stroke="#333" stroke-width="1"/>
  <text x="285" y="320" font-size="13" fill="#222" font-weight="bold">AI Slot Occupancy (Live)</text>
  <text x="500" y="320" font-size="11" fill="#666">Camera tong - YOLO11n realtime</text>

  <!-- Zone overview + Quick access -->
  <rect x="270" y="350" width="600" height="290" rx="6" fill="#f5f5f5" stroke="#333" stroke-width="1.5"/>
  <text x="285" y="375" font-size="14" fill="#222" font-weight="bold">Tong quan cho dau</text>
  <text x="285" y="392" font-size="11" fill="#666">Trang thai theo zone</text>
  <rect x="780" y="365" width="80" height="20" rx="3" fill="#ffffff" stroke="#333" stroke-width="1"/>
  <text x="820" y="378" font-size="9" fill="#222" text-anchor="middle">Con / Day</text>

  <!-- Zone rows -->
  <rect x="285" y="405" width="570" height="50" rx="4" fill="#ffffff" stroke="#333" stroke-width="1"/>
  <text x="300" y="425" font-size="12" fill="#222" font-weight="bold">Zone M - B2</text>
  <text x="300" y="442" font-size="10" fill="#666">Tang -2 | Xe may</text>
  <rect x="430" y="425" width="280" height="10" rx="5" fill="#e0e0e0" stroke="#333" stroke-width="1"/>
  <text x="840" y="435" font-size="11" fill="#222" text-anchor="end">18/25</text>

  <rect x="285" y="460" width="570" height="50" rx="4" fill="#ffffff" stroke="#333" stroke-width="1"/>
  <text x="300" y="480" font-size="12" fill="#222" font-weight="bold">Zone B - B2</text>
  <text x="300" y="497" font-size="10" fill="#666">Tang -2 | O to</text>
  <rect x="430" y="480" width="280" height="10" rx="5" fill="#e0e0e0" stroke="#333" stroke-width="1"/>
  <text x="840" y="490" font-size="11" fill="#222" text-anchor="end">10/15</text>

  <rect x="285" y="515" width="570" height="50" rx="4" fill="#ffffff" stroke="#333" stroke-width="1"/>
  <text x="300" y="535" font-size="12" fill="#222" font-weight="bold">Zone A - B1</text>
  <text x="300" y="552" font-size="10" fill="#666">Tang -1 | O to</text>
  <rect x="430" y="535" width="280" height="10" rx="5" fill="#e0e0e0" stroke="#333" stroke-width="1"/>
  <text x="840" y="545" font-size="11" fill="#222" text-anchor="end">10/15</text>

  <rect x="285" y="570" width="570" height="50" rx="4" fill="#ffffff" stroke="#333" stroke-width="1"/>
  <text x="300" y="590" font-size="12" fill="#222" font-weight="bold">Zone M - B1</text>
  <text x="300" y="607" font-size="10" fill="#666">Tang -1 | Xe may</text>
  <rect x="430" y="590" width="280" height="10" rx="5" fill="#e0e0e0" stroke="#333" stroke-width="1"/>
  <text x="840" y="600" font-size="11" fill="#222" text-anchor="end">18/25</text>

  <text x="285" y="635" font-size="11" fill="#666" font-style="italic">Zone occupancy table</text>

  <!-- Quick access (right column) -->
  <rect x="890" y="350" width="290" height="120" rx="6" fill="#ffffff" stroke="#333" stroke-width="1.5"/>
  <text x="905" y="372" font-size="13" fill="#222" font-weight="bold">Truy cap nhanh</text>
  <rect x="905" y="385" width="125" height="35" rx="4" fill="none" stroke="#333" stroke-width="1"/>
  <text x="967" y="407" font-size="11" fill="#222" text-anchor="middle">Nguoi dung</text>
  <rect x="1040" y="385" width="125" height="35" rx="4" fill="none" stroke="#333" stroke-width="1"/>
  <text x="1102" y="407" font-size="11" fill="#222" text-anchor="middle">Camera</text>
  <rect x="905" y="425" width="125" height="35" rx="4" fill="none" stroke="#333" stroke-width="1"/>
  <text x="967" y="447" font-size="11" fill="#222" text-anchor="middle">Giam sat live</text>
  <rect x="1040" y="425" width="125" height="35" rx="4" fill="none" stroke="#333" stroke-width="1"/>
  <text x="1102" y="447" font-size="11" fill="#222" text-anchor="middle">Bao cao</text>

  <!-- System status -->
  <rect x="890" y="480" width="290" height="160" rx="6" fill="#ffffff" stroke="#333" stroke-width="1.5"/>
  <text x="905" y="502" font-size="13" fill="#222" font-weight="bold">Trang thai he thong</text>
  <line x1="905" y1="512" x2="1165" y2="512" stroke="#ccc" stroke-width="1"/>
  <text x="905" y="532" font-size="11" fill="#666">API Gateway</text>
  <rect x="1110" y="520" width="55" height="18" rx="9" fill="#e0e0e0" stroke="#333" stroke-width="1"/>
  <text x="1138" y="533" font-size="10" fill="#222" text-anchor="middle">Online</text>

  <text x="905" y="557" font-size="11" fill="#666">Auth Service</text>
  <rect x="1110" y="545" width="55" height="18" rx="9" fill="#e0e0e0" stroke="#333" stroke-width="1"/>
  <text x="1138" y="558" font-size="10" fill="#222" text-anchor="middle">Online</text>

  <text x="905" y="582" font-size="11" fill="#666">Booking Service</text>
  <rect x="1110" y="570" width="55" height="18" rx="9" fill="#e0e0e0" stroke="#333" stroke-width="1"/>
  <text x="1138" y="583" font-size="10" fill="#222" text-anchor="middle">Online</text>

  <text x="905" y="607" font-size="11" fill="#666">AI Service</text>
  <rect x="1110" y="595" width="55" height="18" rx="9" fill="#e0e0e0" stroke="#333" stroke-width="1"/>
  <text x="1138" y="608" font-size="10" fill="#222" text-anchor="middle">Online</text>

  <text x="905" y="632" font-size="11" fill="#666">Camera EZVIZ</text>
  <rect x="1110" y="620" width="55" height="18" rx="9" fill="#e0e0e0" stroke="#333" stroke-width="1"/>
  <text x="1138" y="633" font-size="10" fill="#222" text-anchor="middle">Online</text>

  <!-- Recent bookings table -->
  <rect x="270" y="660" width="600" height="120" rx="6" fill="#ffffff" stroke="#333" stroke-width="1.5"/>
  <text x="285" y="682" font-size="13" fill="#222" font-weight="bold">Lich su gan day</text>
  <text x="285" y="698" font-size="10" fill="#666">Cac booking moi nhat</text>
  <text x="855" y="682" font-size="11" fill="#222" text-anchor="end">Xem tat ca</text>

  <!-- Mini table header -->
  <line x1="285" y1="710" x2="855" y2="710" stroke="#ccc" stroke-width="1"/>
  <text x="295" y="725" font-size="10" fill="#666">Bien so</text>
  <text x="430" y="725" font-size="10" fill="#666">Vi tri</text>
  <text x="600" y="725" font-size="10" fill="#666">Thoi gian</text>
  <text x="780" y="725" font-size="10" fill="#666">Trang thai</text>
  <line x1="285" y1="732" x2="855" y2="732" stroke="#ccc" stroke-width="1"/>

  <text x="445" y="760" font-size="11" fill="#666" font-style="italic" text-anchor="middle">[empty state - chua co booking nao]</text>

  <!-- Recent activity -->
  <rect x="890" y="660" width="290" height="120" rx="6" fill="#ffffff" stroke="#333" stroke-width="1.5"/>
  <text x="905" y="682" font-size="13" fill="#222" font-weight="bold">Hoat dong gan day</text>
  <text x="1035" y="745" font-size="11" fill="#666" text-anchor="middle" font-style="italic">[empty state]</text>
</svg>
